<svg width="30" height="30" viewBox="0 0 30 30" fill="none" xmlns="http://www.w3.org/2000/svg">
<path d="M9.8983 29.5836C8.18677 29.5836 6.73414 28.983 5.54042 27.7817C4.3467 26.5805 3.74984 25.1298 3.74984 23.4298V9.07612C2.77762 8.71501 1.979 8.15234 1.354 7.38812C0.729004 6.62387 0.416504 5.76353 0.416504 4.80712C0.416504 3.58095 0.844115 2.54271 1.69934 1.69241C2.55453 0.842131 3.58924 0.416992 4.80346 0.416992C6.01768 0.416992 7.05018 0.843423 7.90096 1.69628C8.75174 2.54915 9.17713 3.58476 9.17713 4.80312C9.17713 5.75345 8.86463 6.61292 8.23963 7.38153C7.61463 8.15014 6.81602 8.71501 5.8438 9.07612V23.4298C5.8438 24.5462 6.23942 25.502 7.03067 26.297C7.82192 27.0921 8.78346 27.4896 9.91529 27.4896C11.0471 27.4896 12.003 27.0921 12.7829 26.297C13.5629 25.502 13.9528 24.5462 13.9528 23.4298V6.56012C13.9528 4.85215 14.5497 3.4013 15.7434 2.20758C16.9371 1.01385 18.3898 0.416992 20.1013 0.416992C21.8128 0.416992 23.2655 1.01385 24.4592 2.20758C25.6529 3.4013 26.2498 4.85215 26.2498 6.56012V20.9244C27.222 21.2856 28.0206 21.8487 28.6456 22.6138C29.2706 23.3789 29.5831 24.2403 29.5831 25.1978C29.5831 26.4084 29.1574 27.442 28.306 28.2986C27.4547 29.1553 26.4209 29.5836 25.2047 29.5836C23.9962 29.5836 22.9637 29.1553 22.1072 28.2986C21.2507 27.442 20.8225 26.4084 20.8225 25.1978C20.8225 24.2399 21.135 23.3715 21.76 22.5927C22.385 21.8139 23.1836 21.2578 24.1558 20.9244V6.56012C24.1558 5.44195 23.7602 4.48755 22.9689 3.69691C22.1777 2.90627 21.2208 2.51095 20.0982 2.51095C18.9756 2.51095 18.0197 2.90627 17.2305 3.69691C16.4414 4.48755 16.0468 5.44195 16.0468 6.56012V23.4298C16.0468 25.1298 15.4499 26.5805 14.2562 27.7817C13.0624 28.983 11.6098 29.5836 9.8983 29.5836ZM4.81071 7.08366C5.44035 7.08366 5.9765 6.85769 6.41917 6.40574C6.86184 5.95382 7.08317 5.41305 7.08317 4.78341C7.08317 4.15377 6.86299 3.61762 6.42263 3.17495C5.98227 2.73228 5.44032 2.51095 4.7968 2.51095C4.17643 2.51095 3.64028 2.73112 3.18834 3.17145C2.73642 3.61181 2.51046 4.15376 2.51046 4.79728C2.51046 5.41767 2.73642 5.95382 3.18834 6.40574C3.64028 6.85769 4.18107 7.08366 4.81071 7.08366ZM25.2167 27.4896C25.8463 27.4896 26.3825 27.2637 26.8251 26.8117C27.2678 26.3598 27.4891 25.819 27.4891 25.1894C27.4891 24.5597 27.269 24.0236 26.8286 23.5809C26.3883 23.1382 25.8463 22.9169 25.2028 22.9169C24.5824 22.9169 24.0463 23.1371 23.5943 23.5774C23.1424 24.0178 22.9164 24.5598 22.9164 25.2033C22.9164 25.8236 23.1424 26.3598 23.5943 26.8117C24.0463 27.2637 24.587 27.4896 25.2167 27.4896Z" fill="#1C1B1F"/>
</svg>
