<?xml version="1.0" encoding="UTF-8"?>
<svg width="30px" height="30px" viewBox="0 0 30 30" version="1.1" xmlns="http://www.w3.org/2000/svg" xmlns:xlink="http://www.w3.org/1999/xlink">
    <title>Artboard</title>
    <g id="Artboard" stroke="none" stroke-width="1" fill="none" fill-rule="evenodd">
        <path d="M6.23430517,30 C5.59963702,30 5.05600028,29.7774159 4.60343928,29.3322478 C4.15086941,28.8870797 3.92458447,28.3524073 3.92458447,27.7280564 L3.92458447,11.4208544 C3.92458447,10.7965035 4.15086941,10.2618311 4.60343928,9.81666301 C5.05600028,9.37149489 5.59963702,9.14891083 6.23430517,9.14891083 L10.8954789,9.14891083 L10.8954789,10.9738561 L6.23430517,10.9738561 C6.12072411,10.9738561 6.01658821,11.0203948 5.9219329,11.1135594 C5.82725101,11.2066369 5.77991006,11.3091266 5.77991006,11.4208544 L5.77991006,27.7280564 C5.77991006,27.8398714 5.82725101,27.942274 5.9219329,28.0353514 C6.01658821,28.128516 6.12072411,28.1750547 6.23430517,28.1750547 L23.7656948,28.1750547 C23.8792848,28.1750547 23.9833941,28.128516 24.0781114,28.0353514 C24.1727401,27.942274 24.2201431,27.8398714 24.2201431,27.7280564 L24.2201431,11.4208544 C24.2201431,11.3091266 24.1727401,11.2066369 24.0781114,11.1135594 C23.9833941,11.0203948 23.8792848,10.9738561 23.7656948,10.9738561 L19.0743073,10.9738561 L19.0743073,9.14891083 L23.7656948,9.14891083 C24.400363,9.14891083 24.9440352,9.37149489 25.3965341,9.81666301 C25.8491217,10.2618311 26.0754155,10.7965035 26.0754155,11.4208544 L26.0754155,27.7280564 C26.0754155,28.3524073 25.8491217,28.8870797 25.3965341,29.3322478 C24.9440352,29.7774159 24.400363,30 23.7656948,30 L6.23430517,30 Z M14.0572126,19.7187777 L14.0572126,3.51945141 L10.8954789,6.62937081 L9.56456303,5.32213828 L14.9848931,0 L20.3957425,5.32213828 L19.0743073,6.62937081 L15.912485,3.51945141 L15.912485,19.7187777 L14.0572126,19.7187777 Z" id="Shape" fill="#1C1B1F" fill-rule="nonzero"></path>
    </g>
</svg>